# xmcd
#
# Track frame offsets: 
#        150
#        10533
#        15176
#        20224
#        25272
#        30320
#        35368
#        40416
#        43475
#        46534
#        49593
#        52652
#        55711
#        61850
#        67989
#        74128
#        80267
#        86300
#        90109
#        93918
#        97727
#        101536
#        105345
#        111854
#        118363
#        124872
#        131381
#        137890
#        144541
#        151192
#        157843
#        164494
#        171145
#        176944
#        182743
#        188542
#        194341
#        200140
#        205209
#        210278
#        215347
#        220416
#        225485
#        230554
#        235623
#        240692
#        245761
#        250830
#        256545
#        262260
#        267975
#        273690
#
# Disc length: 3723 seconds
#
# Revision: 0
# Processed by: cddbd v1.5.2PL0 Copyright (c) Steve Scherf et al.
# Submitted via: ExactAudioCopy v0.99pb5
#
DISCID=c20e8934
DTITLE=Milo Herrmann - Saxophon-Duette mit Blues-Feeling
DYEAR=1900
DGENRE=
TTITLE0=01 Milo Herrmann Trailer
TTITLE1=02 Stimmton
TTITLE2=03 Summer Blues
TTITLE3=04 Summer Blues 1.
TTITLE4=05 Summer Blues 2.
TTITLE5=06 Summer Blues Sax
TTITLE6=07 Summer Blues Rhy
TTITLE7=08 No Time
TTITLE8=09 No Time 1.
TTITLE9=10 No Time 2.
TTITLE10=11 No Time Sax
TTITLE11=12 No Time Rhy
TTITLE12=13 For An Old Friend
TTITLE13=14 For An Old Friend 1.
TTITLE14=15 For An Old Friend 2.
TTITLE15=16 For An Old Friend Sax
TTITLE16=17 For An Old Friend Rhy
TTITLE17=18 Cloudy Noon
TTITLE18=19 Cloudy Noon 1.
TTITLE19=20 Cloudy Noon 2.
TTITLE20=21 Cloudy Noon Sax
TTITLE21=22 Cloudy Noon Rhy
TTITLE22=23 It's Time To Sleep
TTITLE23=24 It's Time To Sleep 1.
TTITLE24=25 It's Time To Sleep 2.
TTITLE25=26 It's Time To Sleep Sax
TTITLE26=27 It's Time To Sleep Rhy
TTITLE27=28 Setting Out
TTITLE28=29 Setting Out 1.
TTITLE29=30 Setting Out 2.
TTITLE30=31 Setting Out Sax
TTITLE31=32 Setting Out Rhy
TTITLE32=33 Marching Blues
TTITLE33=34 Marching Blues 1.
TTITLE34=35 Marching Blues 2.
TTITLE35=36 Marching Blues Sax
TTITLE36=37 Marching Blues Rhy
TTITLE37=38 Funny Time
TTITLE38=39 Funny Time 1.
TTITLE39=40 Funny Time 2.
TTITLE40=41 Funny Time Sax
TTITLE41=42 Funny Time Rhy
TTITLE42=43 Don't Go
TTITLE43=44 Don't Go 1.
TTITLE44=45 Don't Go 2.
TTITLE45=46 Don't Go Sax
TTITLE46=47 Don't Go Rhy
TTITLE47=48 Skipping Girl
TTITLE48=49 Skipping Girl 1.
TTITLE49=50 Skipping Girl 2.
TTITLE50=51 Skipping Girl Sax
TTITLE51=52 Skipping Girl Rhy
EXTD=
EXTT0=
EXTT1=
EXTT2=
EXTT3=
EXTT4=
EXTT5=
EXTT6=
EXTT7=
EXTT8=
EXTT9=
EXTT10=
EXTT11=
EXTT12=
EXTT13=
EXTT14=
EXTT15=
EXTT16=
EXTT17=
EXTT18=
EXTT19=
EXTT20=
EXTT21=
EXTT22=
EXTT23=
EXTT24=
EXTT25=
EXTT26=
EXTT27=
EXTT28=
EXTT29=
EXTT30=
EXTT31=
EXTT32=
EXTT33=
EXTT34=
EXTT35=
EXTT36=
EXTT37=
EXTT38=
EXTT39=
EXTT40=
EXTT41=
EXTT42=
EXTT43=
EXTT44=
EXTT45=
EXTT46=
EXTT47=
EXTT48=
EXTT49=
EXTT50=
EXTT51=
PLAYORDER=
